<?xml version="1.0" encoding="utf-8"?>
<!-- Generator: Adobe Illustrator 18.1.1, SVG Export Plug-In . SVG Version: 6.00 Build 0)  -->
<svg version="1.1" id="Layer_1" xmlns="http://www.w3.org/2000/svg" xmlns:xlink="http://www.w3.org/1999/xlink" x="0px" y="0px"
	 viewBox="-225.9 366.3 44.4 36.5" enable-background="new -225.9 366.3 44.4 36.5" xml:space="preserve">
<path d="M-182,380.9l-19.9-13.2c-0.3-0.2-0.6-0.2-0.9-0.2l-22.1,4.7c-0.4,0.1-0.8,0.4-0.9,0.9l-0.1,0.6c-0.1,0.5,0.1,1,0.5,1.2
	l9.2,6.1l-0.5,2.4c-0.3,1.2,0.6,2.7,2.8,4.1c4,2.7,10.9,4.1,15.4,3.1c2.1-0.4,3.3-1.3,3.5-2.4l0.5-2.1l6-1.3c0.7,1,1.2,2.3,1.3,3.9
	c-0.6,0.3-1,0.9-1,1.7c0,0.6,0.3,1.1,0.7,1.5c-0.5,2.6-1.2,7.4,0.2,9.5c0.4,0.6,1,1,1.6,1.2c0.1,0,0.1,0,0.2,0
	c0.4,0,0.7-0.3,0.8-0.7c0.1-0.5-0.2-0.9-0.7-1c-0.1,0-0.3-0.1-0.5-0.4c-0.5-0.8-0.6-2.2-0.5-3.9c0.4,1.3,1.1,2.5,2,3.1
	c0.4,0.3,0.9,0.1,1.2-0.2c0.3-0.4,0.1-0.9-0.2-1.2c-1.3-0.9-1.9-3.9-2-6.3c0.6-0.3,1-0.9,1-1.6c0-0.7-0.4-1.4-1.1-1.7
	c-0.1-1.7-0.6-3.1-1.3-4.3l4.3-0.9c0.4-0.1,0.8-0.4,0.9-0.9l0.1-0.6C-181.4,381.7-181.6,381.2-182,380.9z M-204.8,376.4
	c0-0.2,0.2-0.3,0.5-0.3c0.6-0.1,1.5,0.1,2,0.4c0.3,0.2,0.4,0.4,0.4,0.5l0,0l-0.1,0.4h0c0,0.2-0.2,0.3-0.5,0.3
	c-0.6,0.1-1.5-0.1-2-0.4c-0.3-0.2-0.4-0.4-0.4-0.5L-204.8,376.4z"/>
</svg>
