<?xml version="1.0" encoding="utf-8"?>
<!-- Generator: Adobe Illustrator 18.1.1, SVG Export Plug-In . SVG Version: 6.00 Build 0)  -->
<svg version="1.1" id="Your_Icon" xmlns="http://www.w3.org/2000/svg" xmlns:xlink="http://www.w3.org/1999/xlink" x="0px" y="0px"
	 viewBox="-230.4 354.6 54.3 53.9" enable-background="new -230.4 354.6 54.3 53.9" xml:space="preserve">
<path d="M-197.5,368.3c0,0-27.3-4.4-28.6-4.1s-2.8,1-3.6,2.1c-0.9,1.1-0.9,1.4,0,1.6c0.9,0.3,25.5,11,25.5,11l-8.7,13.7h-7.2
	c0,0-2.1-0.2-2.8,0.8c-0.6,1-2.1,2.8-2.1,2.8s-1.1,1,0.6,1.3c1.7,0.3,9.4,1.2,9.4,1.2l-1.4,2.3c0,0-0.9,1.4-0.2,1.7
	c0.6,0.3,1.6,0.2,2.1-0.6c0.5-0.9,1.6-1.9,1.6-1.9l3.8,7.7c0,0,0.6,1.1,1.7,0c1.1-1.1,1.5-1.8,1.5-1.8s1-1.5,0.3-3.3
	c-0.7-1.8-2.4-7.1-2.4-7.1s21.2-23.9,25.2-32.7c4-8.8-0.1-10.5-5.5-6C-193.6,361.5-197.5,368.3-197.5,368.3z"/>
<path d="M-195.4,385.3l7.4-9.3c0,0,10.6,20.4,11.4,21.8c0.8,1.4,0.5,3.4,0,4.6s-1.3,3.3-3.1,0.9
	C-181.6,400.9-195.4,385.3-195.4,385.3z"/>
</svg>
