<?xml version="1.0" encoding="utf-8"?>
<!-- Generator: Adobe Illustrator 18.1.1, SVG Export Plug-In . SVG Version: 6.00 Build 0)  -->
<svg version="1.1" id="Layer_1" xmlns="http://www.w3.org/2000/svg" xmlns:xlink="http://www.w3.org/1999/xlink" x="0px" y="0px"
	 viewBox="-240.4 350.1 73.3 67.1" enable-background="new -240.4 350.1 73.3 67.1" xml:space="preserve">
<g>
	<path d="M-218.2,355.6c0-3-2.4-5.5-5.4-5.5c-3,0-5.4,2.5-5.4,5.5c0,3,2.4,5.5,5.4,5.5C-220.7,361.1-218.2,358.6-218.2,355.6
		 M-188,355.6c0-3-2.4-5.5-5.4-5.5c-3,0-5.4,2.5-5.4,5.5c0,3,2.4,5.5,5.4,5.5C-190.4,361.1-188,358.6-188,355.6 M-174.8,399.5
		c-1.3-0.8-1.9-1.2-1.9-2.3V397c0-1.3,0.7-2.2,1.9-2.5V399.5z M-173.2,404.8l0.1,0.1c1.2,0.7,1.9,1.1,1.9,2.3v0.4
		c0,1.4-0.7,2.2-2,2.5V404.8z M-167,397.6V397c0-3.6-2.6-5.5-6.2-5.7v-3.7c0-1.8-1.2-2.6-2.3-2.8c0.4-0.6,0.6-1.4,0.3-2.4l-4.7-14.6
		c-0.1-0.3-0.2-0.7-0.4-0.9c-2.1-4.3-6.2-4.1-6.2-4.1h-7.1h-6.9c0,0-5.1-0.2-6.8,5.9l-2.1,7.5l-2.1-7.5c-1.7-6.1-6.8-5.9-6.8-5.9
		h-5.4h-5.4c0,0-5.1-0.2-6.8,5.9l-4.4,14.1c-0.4,1.4,0.4,2.5,1.6,2.9c1.2,0.4,2.5-0.3,2.8-1.4l4.2-13.7l2.1,0l-6.2,26.3h5.5v0v17.5
		c0,1.5,1.2,2.7,2.7,2.7c1.5,0,2.7-1.2,2.7-2.7v-17.5h2.3v17.5c0,1.5,1.2,2.7,2.7,2.7c1.5,0,2.7-1.2,2.7-2.7v-17.5v0h5.4l-6.1-26.3
		l2.1,0l4.2,13.6c0.1,0.3,0.2,0.5,0.3,0.7c0.4,0.6,1.1,1,1.9,0.9c0.8,0,1.5-0.3,1.9-0.9c0.2-0.2,0.3-0.5,0.4-0.8l4.2-13.5l1.9,0
		v43.3c0,1.8,1.4,3.2,3.2,3.2c1.8,0,3.2-1.4,3.2-3.2v-24h2.4v24c0,1.8,1.4,3.2,3.2,3.2c1.8,0,3.2-1.4,3.2-3.2v-43.3l0.9,0v0h0.6
		l0.6,0l0,0h0l4.2,13.3c0.1,0.4,0.3,0.7,0.5,1c-1.4,0.4-1.9,1.7-1.9,2.7v0.5c0,0.5,0.4,0.8,0.8,0.8c0.4,0,0.8-0.4,0.8-0.8v-0.5
		c0-0.4,0.1-1.2,1.2-1.2h2c0.4,0,1.2,0.1,1.2,1.2v3.8c-3.7,0.3-6.1,2.4-6.1,5.8c0,1.7,0.5,3.5,2.5,4.7l3.6,2v6.2
		c-1.2-0.3-2-1.2-2-2.5v-1.2c0-0.4-0.4-0.8-1-0.8h-2.1c-0.5,0-1,0.4-1,0.8v1.2c0,3.5,2.6,5.4,6.1,5.7v2.9c0,0.5,0.4,0.8,0.8,0.8
		c0.4,0,0.8-0.4,0.8-0.8v-2.9c3.7-0.3,6.2-2.2,6.2-5.7c0-2.7-0.4-3.9-3-5.3l-3.2-1.8v-6c1.3,0.3,2.1,1.2,2.1,2.5v0.6
		c0,0.4,0.4,0.8,1,0.8h2.1C-167.5,398.5-167,398.1-167,397.6"/>
</g>
</svg>
