<?xml version="1.0" encoding="utf-8"?>
<!-- Generator: Adobe Illustrator 18.1.1, SVG Export Plug-In . SVG Version: 6.00 Build 0)  -->
<svg version="1.1" id="Calque_1" xmlns="http://www.w3.org/2000/svg" xmlns:xlink="http://www.w3.org/1999/xlink" x="0px" y="0px"
	 viewBox="-360 248.3 83.5 73.3" enable-background="new -360 248.3 83.5 73.3" xml:space="preserve">
<path d="M-301.6,268.6c-1,2.5-2.6,4.6-4.6,6.1c2.3,0.6,4.4,1.6,6.2,2.8l-2.3,3.5c-2.8-1.9-6.6-3-10.7-3h0c-4.3,0-8.4,1.2-11.2,3.4
	l-3.3-3.4c1.7-1.3,3.6-2.2,5.7-3c-2.9-1.6-4.7-3.8-5.6-6c-3.1,1.2-5.9,2.9-8.3,5.3h-11.5l5.7,5.7c-1.1,1-2.1,2.2-2.8,3.5
	c-0.1,0.2-0.2,0.4-0.2,0.5c-1.3,1.5-5.2,6-8.4,6c-1.6,0-2.9,1.8-2.9,4.1c0,1.6,0.6,2.9,1.5,3.6l0,0.1c0,0,3.2,1.5,8.4,2.6
	c1.7,0.8,4.9,3.7,11.5,6.5c0.1,0.1,0.3,0.1,0.4,0.1c0.2,0.1,0.3,0.2,0.5,0.2l-4.1,8.6h5.8l7.1-7.1c4.1-0.3,9.3-1.7,14.1-3.9
	c0,0,0,0,0,0c0.7-0.3,1.5-0.1,2.1,0.3c0,0,0,0,0,0l5.9,4.2l-4.6,6.5h8.3c0,0,12.8-9.9,14.1-13.3c2.1-3.2,2.4-5.9,2.4-5.9
	C-279.8,282.3-289.3,272.5-301.6,268.6z"/>
<path d="M-318.3,274.1c1.4-0.3,2.9-0.5,4.5-0.5c0,0,0,0,0,0c1.4,0,2.7,0.1,4,0.4c2.8-1.5,4.7-4.5,4.7-7.9c0-5-4-9-9-9c-5,0-9,4-9,9
	C-323.2,269.6-321.2,272.6-318.3,274.1z"/>
<path d="M-305.4,249.4c-3.6,0.7-6.3,3.4-7.3,6.7c0,0,0,0,0,0c5.2-1.1,10.3,2.3,11.4,7.5c0.3,1.6,0.2,3.2-0.2,4.7c0,0,0,0,0,0
	c5.2-1.1,8.5-6.2,7.5-11.4C-295.1,251.7-300.2,248.3-305.4,249.4z"/>
</svg>
