<?xml version="1.0" encoding="utf-8"?>
<!-- Generator: Adobe Illustrator 18.1.1, SVG Export Plug-In . SVG Version: 6.00 Build 0)  -->
<svg version="1.1" id="Layer_1" xmlns="http://www.w3.org/2000/svg" xmlns:xlink="http://www.w3.org/1999/xlink" x="0px" y="0px"
	 viewBox="-370 266.6 100 62" enable-background="new -370 266.6 100 62" xml:space="preserve">
<path d="M-275.2,290.7c-0.3-0.6-0.8-1-1.5-1.2l-12.2-4c-1.3-0.4-2.6,0.3-3.1,1.5c-0.4,1.2,0.3,2.6,1.5,3l6.8,2.2l-22,11.2
	c3.5-5.2,4.2-12,1.2-18c-3.1-6.3-9.4-10-16-10c-2.7,0-5.4,0.6-7.9,1.9c-8.8,4.4-12.4,15.1-8,24c3,6,9,9.6,15.3,9.8l-9.4,4.8
	l-17.3-8.6c-1-0.4-1.7-0.3-2.2,0l-2.2,1.1c0,0-11.3,5.7-11.5,5.8c-1.2,0.6-1.7,2-1.1,3.2c0.6,1.2,2,1.7,3.2,1.1
	c0.1-0.1,12.6-6.4,12.6-6.4l17.3,8.8c0.7,0.3,1.3,0.4,2.1,0l48-24.3c0,0-2.2,6.6-2.2,6.8c-0.4,1.3,0.3,2.7,1.5,3
	c1.2,0.4,2.7-0.3,3-1.5c0.1-0.3,4-12.4,4-12.4C-274.9,292-275,291.3-275.2,290.7L-275.2,290.7z M-313.9,302.6c0.4,0.9,0.1,2-0.9,2.5
	c-1,0.4-2,0.1-2.4-0.9l-0.9-1.9c-2.6,0.6-5.5-0.2-6.7-2.6c-0.4-0.9-0.1-2,0.9-2.5c0.9-0.4,2-0.1,2.4,0.8c0.6,1.3,2.6,0.8,3.5,0.4
	c0.9-0.5,2.5-1.8,1.9-3c-0.6-1.2-2.6-0.7-3.5-0.3c-1.9,0.9-3.8,1.1-5.5,0.5c-1.4-0.4-2.4-1.3-2.9-2.5c-1.1-2.3-0.2-5.1,2.1-6.9
	l-0.9-1.8c-0.4-0.9-0.1-2,0.8-2.5c1.1-0.4,2,0,2.5,0.9l0.9,1.8c1-0.2,2-0.3,3-0.1c1.7,0.4,3,1.3,3.7,2.7c0.4,0.9,0.1,2-0.9,2.5
	c-0.9,0.4-2,0.1-2.4-0.9c-0.6-1.2-2.7-0.7-3.5-0.3l0,0l0,0c-1.6,0.7-2.3,2.2-1.9,2.9c0.6,1.2,2.7,0.7,3.5,0.3c2.9-1.5,7-1,8.5,2
	c1.1,2.3,0.2,5.1-2.1,6.9L-313.9,302.6z"/>
</svg>
